<?xml version="1.0" encoding="iso-8859-1"?>
<!-- Generator: Adobe Illustrator 19.0.0, SVG Export Plug-In . SVG Version: 6.00 Build 0)  -->
<svg version="1.1" id="Layer_1" xmlns="http://www.w3.org/2000/svg" xmlns:xlink="http://www.w3.org/1999/xlink" x="0px" y="0px"
	 viewBox="0 0 508 508" style="enable-background:new 0 0 508 508;" xml:space="preserve">
<g>
	<path style="fill:#73BADD;" d="M502,118c0,13.2,0,28,0,28H6c0,0,0-14.8,0-28V78c0-13.2,12-20,25.2-20h448c13.2,0,22.8,6.8,22.8,20
		V118z"/>
	<path style="fill:#73BADD;" d="M490,146v280c0,13.2-9.6,28-22.8,28h-420C34,454,22,439.2,22,426V146H490z"/>
</g>
<path style="fill:#F4EFEF;" d="M358,210c0,13.2-10.8,24-24,24H178c-13.2,0-24-10.8-24-24l0,0c0-13.2,10.8-24,24-24h156
	C347.2,186,358,196.8,358,210L358,210z"/>
<path d="M504,148H4c-2.4,0-4-1.6-4-4V76c0-15.6,15.6-24,31.2-24h452c15.6,0,24.8,8.8,24.8,24v68C508,146.4,506.4,148,504,148z
	 M8,140h492V76c0-10.8-5.6-16-16.8-16h-452C19.6,60,8,65.6,8,76V140z"/>
<path d="M467.2,456h-420C32,456,16,439.6,16,424V146c0-2.4,1.6-4,4-4s4,1.6,4,4v278c0,11.2,12.4,24,23.2,24h420
	c10.4,0,16.8-12.4,16.8-24V146c0-2.4,1.6-4,4-4s4,1.6,4,4v278C492,439.6,482.8,456,467.2,456z"/>
<path d="M332,236H176c-15.6,0-28-12.4-28-28s12.4-28,28-28h156c15.6,0,28,12.4,28,28S347.6,236,332,236z M176,188
	c-11.2,0-20,8.8-20,20s8.8,20,20,20h156c11.2,0,20-8.8,20-20s-8.8-20-20-20H176z"/>
<path d="M470,84H6c-2.4,0-4-1.6-4-4s1.6-4,4-4h464c2.4,0,4,1.6,4,4S472.4,84,470,84z"/>
<g>
</g>
<g>
</g>
<g>
</g>
<g>
</g>
<g>
</g>
<g>
</g>
<g>
</g>
<g>
</g>
<g>
</g>
<g>
</g>
<g>
</g>
<g>
</g>
<g>
</g>
<g>
</g>
<g>
</g>
</svg>
